<svg version="1.1" xmlns="http://www.w3.org/2000/svg" xmlns:xlink="http://www.w3.org/1999/xlink" x="0px" y="0px" width="20px" height="20px" viewBox="0 0 20 20" style="enable-background:new 0 0 20 20;" xml:space="preserve">
	<g fill="#231f20" class="fill-1">
		<path d="M15.269,4.989c0.342,0,0.62-0.278,0.62-0.62V0.631c0-0.341-0.278-0.618-0.618-0.62L11.513,0C8.157,0,6.961,2.351,6.961,4.552V7.54H4.73c-0.342,0-0.62,0.278-0.62,0.62v3.668c0,0.342,0.278,0.62,0.62,0.62h2.231v6.93c0,0.342,0.278,0.62,0.62,0.62h3.895c0.342,0,0.62-0.278,0.621-0.619v-6.93h2.417c0.301,0,0.558-0.217,0.611-0.515l0.63-3.669c0.032-0.181-0.019-0.366-0.138-0.504C15.5,7.621,15.326,7.54,15.143,7.54h-3.046V4.989H15.269z M10.856,4.369v3.792c0,0.342,0.278,0.62,0.619,0.62h2.931l-0.418,2.428h-2.513c-0.342,0-0.619,0.279-0.619,0.62v6.931H8.201v-6.931c0-0.342-0.278-0.62-0.62-0.62h-2.23V8.781H7.58c0.342,0,0.62-0.278,0.62-0.62V4.552c0-0.777,0.239-3.312,3.31-3.312l3.139,0.009v2.499h-3.173C11.134,3.749,10.856,4.027,10.856,4.369z"></path>
	</g>
	<g fill="none" class="fill-2">
		<path d="M10.856,4.369v3.792c0,0.342,0.278,0.62,0.619,0.62h2.931l-0.418,2.428h-2.513c-0.342,0-0.619,0.279-0.619,0.62v6.931H8.201v-6.931c0-0.342-0.278-0.62-0.62-0.62h-2.23V8.781H7.58c0.342,0,0.62-0.278,0.62-0.62V4.552c0-0.777,0.239-3.312,3.31-3.312l3.139,0.009v2.499h-3.173C11.134,3.749,10.856,4.027,10.856,4.369z"></path>
	</g>
</svg>