<svg version="1.1" xmlns="http://www.w3.org/2000/svg" xmlns:xlink="http://www.w3.org/1999/xlink" x="0px" y="0px" width="20px" height="20px" viewBox="0 0 20 20" style="enable-background:new 0 0 20 20;" xml:space="preserve">
	<g fill="#231f20" class="fill-1">
		<path d="M18.155,7.558c0.276-0.081,0.462-0.342,0.45-0.634v-3.01c0.011-0.227-0.095-0.441-0.275-0.565l-0.003-0.002c-0.172-0.125-0.393-0.152-0.589-0.076c-0.67,0.29-1.417,0.299-2.098,0.021c-0.681-0.277-1.214-0.805-1.502-1.489c-0.154-0.365-0.229-0.752-0.221-1.149c0.004-0.17-0.059-0.336-0.175-0.457C13.624,0.073,13.459,0.001,13.29,0h-3.005C9.94,0,9.659,0.285,9.659,0.634V13.66c0,1.118-0.898,2.028-2.003,2.028s-2.003-0.91-2.003-2.028s0.899-2.029,2.003-2.029c0.345,0,0.626-0.285,0.626-0.634V7.953c0-0.35-0.281-0.634-0.626-0.634c-3.449,0.004-6.257,2.849-6.261,6.341c-0.01,1.329,0.408,2.653,1.178,3.729c0.117,0.167,0.307,0.266,0.508,0.267c0.13-0.007,0.258-0.057,0.363-0.145c0.144-0.104,0.234-0.25,0.262-0.417c0.027-0.167-0.011-0.335-0.108-0.474c-0.623-0.867-0.951-1.89-0.95-2.96c0.003-2.515,1.786-4.625,4.238-5.018l0.145-0.023v1.771l-0.097,0.023c-0.848,0.195-1.57,0.714-2.033,1.459S4.29,13.501,4.483,14.36c0.193,0.858,0.705,1.589,1.441,2.058c0.736,0.47,1.609,0.62,2.457,0.423c1.477-0.34,2.518-1.65,2.532-3.182V1.268H12.7l0.017,0.106c0.318,1.972,1.982,3.406,3.956,3.409c0.185-0.001,0.369-0.014,0.548-0.037l0.141-0.018v1.726l-0.104,0.018c-1.25,0.219-2.543-0.01-3.645-0.646c-0.193-0.113-0.433-0.113-0.626,0c-0.194,0.113-0.314,0.325-0.313,0.552v7.282c-0.003,1.357-0.527,2.632-1.477,3.589c-0.946,0.953-2.202,1.478-3.537,1.478c-0.004,0-0.009,0-0.013,0c-0.658-0.001-1.299-0.131-1.907-0.386c-0.061-0.02-0.125-0.031-0.189-0.031c-0.096,0-0.192,0.023-0.281,0.068c-0.15,0.075-0.261,0.205-0.314,0.366c-0.098,0.296,0.035,0.626,0.31,0.766C6.017,19.835,6.825,20,7.655,20c0.005,0,0.01,0,0.015,0c3.245-0.005,5.988-2.574,6.247-5.848c0.003-0.036,0.003-0.066,0-0.098L13.916,7.38l0.166,0.059C15.403,7.906,16.81,7.946,18.155,7.558z"></path>
	</g>
	<g fill="none" class="fill-2">
		<path d="M3.598,16.62c-0.623-0.867-0.951-1.89-0.95-2.96c0.003-2.515,1.786-4.625,4.238-5.018l0.145-0.023v1.771l-0.097,0.023c-0.848,0.195-1.57,0.714-2.033,1.459S4.29,13.501,4.483,14.36c0.193,0.858,0.705,1.589,1.441,2.058c0.736,0.47,1.609,0.62,2.457,0.423c1.477-0.34,2.518-1.65,2.532-3.182V1.268H12.7l0.017,0.106c0.318,1.972,1.982,3.406,3.956,3.409c0.185-0.001,0.369-0.014,0.548-0.037l0.141-0.018v1.726l-0.104,0.018c-1.25,0.219-2.543-0.01-3.645-0.646c-0.193-0.113-0.433-0.113-0.626,0c-0.194,0.113-0.314,0.325-0.313,0.552v7.282c-0.003,1.357-0.527,2.632-1.477,3.589c-0.946,0.953-2.202,1.478-3.537,1.478c-0.004,0-0.009,0-0.013,0c-0.658-0.001-1.299-0.131-1.907-0.386C5.679,18.321,4.072,17.613,3.598,16.62L3.598,16.62z"></path>
	</g>
</svg>