<svg version="1.1" xmlns="http://www.w3.org/2000/svg" xmlns:xlink="http://www.w3.org/1999/xlink" x="0px" y="0px" width="20px" height="20px" viewBox="0 0 20 20" style="enable-background:new 0 0 20 20;" xml:space="preserve">
	<g fill="none" class="fill-2">
		<path d="M13.375,1.25h-6.75c-2.964,0-5.375,2.411-5.375,5.375v6.75c0,2.964,2.411,5.375,5.375,5.375h6.75c2.964,0,5.375-2.411,5.375-5.375v-6.75C18.75,3.661,16.339,1.25,13.375,1.25z M10,15.351c-2.95,0-5.351-2.4-5.351-5.351S7.05,4.649,10,4.649s5.351,2.4,5.351,5.351S12.95,15.351,10,15.351z"></path>
	</g>
	<g fill="" class="fill-1">
		<path d="M10,15.351c-2.95,0-5.351-2.4-5.351-5.351S7.05,4.649,10,4.649s5.351,2.4,5.351,5.351S12.95,15.351,10,15.351z M10,5.899c-2.261,0-4.101,1.839-4.101,4.101c0,2.261,1.839,4.101,4.101,4.101c2.261,0,4.101-1.84,4.101-4.101S12.261,5.899,10,5.899z"></path>
		<path d="M13.375,20h-6.75C2.972,20,0,17.028,0,13.375v-6.75C0,2.972,2.972,0,6.625,0h6.75C17.028,0,20,2.972,20,6.625v6.75C20,17.028,17.028,20,13.375,20z M6.625,1.25c-2.964,0-5.375,2.411-5.375,5.375v6.75c0,2.964,2.411,5.375,5.375,5.375h6.75c2.964,0,5.375-2.411,5.375-5.375v-6.75c0-2.964-2.411-5.375-5.375-5.375H6.625z"></path>
		<circle cx="15.444" cy="4.566" r="0.599"></circle>
	</g>
</svg>