<svg version="1.1" xmlns="http://www.w3.org/2000/svg" xmlns:xlink="http://www.w3.org/1999/xlink" x="0px" y="0px" width="20px" height="20px" viewBox="0 0 20 20" xml:space="preserve">
	<g fill="#231f20" class="fill-1">
		<path d="M19.924,7.76c-0.033-0.764-0.131-1.519-0.292-2.236c-0.208-1.21-1.157-2.147-2.356-2.331c-0.57-0.112-1.156-0.183-1.742-0.211L15.21,2.967C13.73,2.9,12.199,2.831,10.681,2.822C9.242,2.817,7.769,2.853,6.263,2.896L5.505,2.917c-0.891,0.017-1.787,0.098-2.66,0.241C2.094,3.265,1.417,3.656,0.936,4.264C0.608,4.714,0.393,5.239,0.315,5.78C0.105,7.019,0,8.283,0.003,9.532c-0.012,0.768,0.017,1.542,0.05,2.262c0.029,0.854,0.126,1.7,0.288,2.509c0.177,1.331,1.224,2.356,2.541,2.494c0.803,0.122,1.616,0.201,2.413,0.234c1.075,0.049,2.167,0.079,3.222,0.107l1.461,0.04h0.003l2.062-0.056c0.819-0.023,1.634-0.046,2.446-0.072c0.899-0.023,1.798-0.105,2.67-0.243c0.751-0.107,1.427-0.499,1.908-1.106c0.328-0.448,0.542-0.967,0.619-1.502c0.215-1.239,0.32-2.504,0.313-3.756C20.008,9.546,19.966,8.626,19.924,7.76z M18.808,10.438c0.006,1.189-0.095,2.39-0.299,3.573c-0.05,0.349-0.19,0.693-0.391,0.965c-0.281,0.353-0.684,0.584-1.137,0.649c-0.835,0.132-1.685,0.209-2.527,0.23c-0.951,0.031-1.901,0.058-2.857,0.084l-1.613,0.046l-1.437-0.04c-1.048-0.028-2.132-0.057-3.2-0.107c-0.748-0.031-1.525-0.106-2.314-0.225c-0.797-0.083-1.406-0.686-1.517-1.508c-0.154-0.774-0.246-1.567-0.273-2.361c-0.03-0.659-0.061-1.427-0.049-2.206C1.192,8.351,1.291,7.15,1.492,5.965c0.051-0.354,0.191-0.702,0.393-0.978c0.281-0.355,0.685-0.586,1.141-0.651c0.829-0.136,1.672-0.212,2.508-0.228l0.896-0.026c1.245-0.034,2.531-0.07,3.797-0.07l0.448,0c1.46,0.008,2.957,0.075,4.404,0.139l0.401,0.019c0.528,0.025,1.06,0.09,1.59,0.194c0.709,0.109,1.268,0.665,1.394,1.389c0.15,0.669,0.241,1.361,0.27,2.059C18.775,8.656,18.816,9.553,18.808,10.438z"></path>
		<path class="st0" d="M7.515,13.854l6.682-3.874L7.515,6.106V13.854z M11.821,9.98l-3.114,1.806V8.174L11.821,9.98z"></path>
	</g>
	<g fill="none" class="fill-2">
		<path d="M18.733,7.813c-0.029-0.698-0.12-1.39-0.27-2.059c-0.125-0.724-0.685-1.28-1.394-1.389c-0.53-0.104-1.063-0.169-1.59-0.194l-0.401-0.019c-1.447-0.065-2.944-0.132-4.404-0.139l-0.448,0c-1.266,0-2.552,0.036-3.797,0.07L5.533,4.109C4.697,4.125,3.854,4.201,3.025,4.337c-0.456,0.065-0.86,0.296-1.141,0.651C1.684,5.263,1.543,5.611,1.492,5.965c-0.201,1.185-0.3,2.386-0.298,3.574c-0.012,0.779,0.019,1.548,0.049,2.206c0.027,0.794,0.119,1.588,0.273,2.361c0.111,0.822,0.72,1.425,1.517,1.508c0.789,0.119,1.566,0.194,2.314,0.225c1.068,0.05,2.152,0.079,3.2,0.107l1.437,0.04l1.613-0.046c0.956-0.026,1.906-0.053,2.857-0.084c0.842-0.02,1.691-0.097,2.527-0.23c0.453-0.066,0.857-0.296,1.137-0.649c0.201-0.272,0.34-0.616,0.391-0.965c0.204-1.183,0.305-2.384,0.299-3.573C18.816,9.553,18.775,8.656,18.733,7.813z M7.515,13.854V6.106l6.682,3.874L7.515,13.854z"></path>
	</g>
</svg>